<?xml version="1.0" encoding="UTF-8"?>
<svg width="18px" height="18px" viewBox="0 0 18 18" version="1.1" xmlns="http://www.w3.org/2000/svg" xmlns:xlink="http://www.w3.org/1999/xlink">
    <!-- Generator: Sketch 50.2 (55047) - http://www.bohemiancoding.com/sketch -->
    <title>course_icon</title>
    <desc>Created with Sketch.</desc>
    <defs></defs>
    <g id="course_icon" stroke="none" stroke-width="1" fill="none" fill-rule="evenodd">
        <path d="M10.3288591,16.5491424 C9.73820999,17.139308 8.70872934,17.139308 8.11544525,16.5491424 L5.24368272,13.6738102 L6.22938156,12.6868861 C6.32728255,12.5862251 6.38079366,12.452281 6.37207783,12.310828 C6.36640241,12.1718103 6.29991892,12.0400987 6.18864015,11.9497879 C6.18864015,11.9497879 5.79784694,11.6106659 5.77859105,11.2175604 C5.76825368,11.018065 5.86169542,10.8224255 6.06256475,10.6213065 C6.26363677,10.4207963 6.41707581,10.4015165 6.51639566,10.4080107 C6.83928652,10.4224198 7.18508175,10.7522063 7.27629386,10.8648411 C7.36568173,10.973417 7.49641908,11.0387654 7.63688573,11.0452597 C7.7763389,11.0570305 7.91356245,11.0012205 8.01166614,10.9013713 L9.22154407,9.68978648 L10.2110941,10.6795518 C10.3144678,10.7816334 10.4553398,10.8382552 10.6026981,10.8216137 C10.7486374,10.8088281 10.881199,10.7337383 10.963898,10.615624 C10.9671411,10.6123769 11.2095626,10.2945642 11.5095491,10.2706166 C11.7041349,10.2474808 11.8922346,10.3560567 12.1028332,10.5669171 C12.3180938,10.7816334 12.4241025,10.9908703 12.4153867,11.1881333 C12.4020089,11.4619068 12.1729652,11.7103122 12.088442,11.7805313 C11.977974,11.8692185 11.9114905,12.0001184 11.9033827,12.1407596 C11.8970992,12.2828215 11.9477726,12.4194038 12.0479032,12.519253 L13.201027,13.6732013 L10.3288591,16.5491424 Z M1.44824557,7.65566345 L4.32000811,4.78053414 L5.01301743,5.47339018 C4.6830323,6.05706152 4.48601414,6.95611021 5.25158777,7.72101191 C6.04999775,8.52183497 6.95259223,8.33350152 7.53553894,8.00127968 L8.52083239,8.98840674 L7.65127697,9.85944895 C7.38757263,9.65427102 7.01157606,9.43853992 6.56990676,9.41783948 C6.26160984,9.40018321 5.80575199,9.47689662 5.36246115,9.92094144 C4.85755146,10.425464 4.77140669,10.9326249 4.78904103,11.2695145 C4.81052655,11.7032091 5.00430161,12.064858 5.19402279,12.3211782 L4.54337642,12.9726334 L1.44824557,9.87365513 C0.837327147,9.26136847 0.837327147,8.26571771 1.44824557,7.65566345 Z M7.67033017,1.42665633 C7.96545201,1.13035586 8.35948831,0.967593545 8.77723976,0.967593545 C9.19681546,0.967593545 9.58801405,1.13035586 9.88435206,1.42665633 L12.9788748,4.52563456 L12.3316742,5.17303079 C12.0701995,4.96866465 11.692176,4.75374533 11.2478717,4.73243605 C10.9225485,4.71153266 10.4839196,4.79210204 10.0420477,5.23533507 C9.53815143,5.7400606 9.45200667,6.24539497 9.46964101,6.58167571 C9.49072114,7.01597914 9.68652313,7.37925164 9.8734066,7.634963 L9.22113869,8.28804172 L7.94072339,7.00238179 C7.75485338,6.81709252 7.45101572,6.81161299 7.25561912,6.98634909 C7.13765146,7.09269255 6.52348993,7.59254739 5.95250214,7.02084983 C5.42772848,6.49461208 5.92392235,5.86608978 6.02587721,5.7471637 C6.20222062,5.55152421 6.1933021,5.25299133 6.0072294,5.06689028 L5.0203144,4.07976323 L7.67033017,1.42665633 Z M17.2514526,7.40076386 L10.5844557,0.724667747 C9.62064772,-0.241555916 7.93464258,-0.241555916 6.97022657,0.724667747 L0.74611504,6.95448665 C-0.248705013,7.95196392 -0.248705013,9.57512226 0.74611504,10.5750349 L7.41351741,17.2495074 C7.89836043,17.7341414 8.54008828,18 9.2239764,18 C9.90624296,18 10.5483762,17.7341414 11.029368,17.2495074 L17.2514526,11.0213121 C17.7344714,10.537287 18,9.89455852 18,9.2102262 C18,8.52589388 17.7344714,7.88316539 17.2514526,7.40076386 Z" id="Fill-1" fill="#12264F"></path>
    </g>
</svg>