<?xml version="1.0" encoding="UTF-8"?>
<svg width="13px" height="72px" viewBox="0 0 13 72" version="1.1" xmlns="http://www.w3.org/2000/svg" xmlns:xlink="http://www.w3.org/1999/xlink">
    <!-- Generator: Sketch 50.2 (55047) - http://www.bohemiancoding.com/sketch -->
    <title>reg_strip</title>
    <desc>Created with Sketch.</desc>
    <defs>
        <linearGradient x1="-37.3453029%" y1="-33.6450689%" x2="84.1188322%" y2="88.1708356%" id="linearGradient-1">
            <stop stop-color="#253E96" offset="0%"></stop>
            <stop stop-color="#97A4E2" offset="100%"></stop>
        </linearGradient>
        <path d="M-26.5,29.5 L39.5,29.5 C41.1568542,29.5 42.5,30.8431458 42.5,32.5 L42.5,42.5 L-29.5,42.5 L-29.5,32.5 C-29.5,30.8431458 -28.1568542,29.5 -26.5,29.5 Z" id="path-2"></path>
    </defs>
    <g id="reg_strip" stroke="none" stroke-width="1" fill="none" fill-rule="evenodd">
        <g>
            <mask id="mask-3" fill="white">
                <use xlink:href="#path-2"></use>
            </mask>
            <use id="Mask" fill="url(#linearGradient-1)" transform="translate(6.500000, 36.000000) rotate(-90.000000) translate(-6.500000, -36.000000) " xlink:href="#path-2"></use>
            <path d="M6.73607814,159.212679 C1.48513002,164.385091 -7.66708874,164.385091 -12.9414625,159.212679 L-38.4718101,134.012291 L-29.7088174,125.362554 C-28.8384646,124.480327 -28.3627439,123.306395 -28.4402287,122.066653 C-28.4906839,120.848255 -29.0817309,119.693889 -30.0710139,118.902375 C-30.0710139,118.902375 -33.545217,115.930195 -33.7164044,112.484885 C-33.808305,110.736439 -32.9775957,109.021788 -31.1918408,107.259113 C-29.404284,105.501773 -28.0401908,105.332799 -27.1572242,105.389716 C-24.2866819,105.516003 -21.2125167,108.406364 -20.401629,109.393533 C-19.6069591,110.345129 -18.4446868,110.917865 -17.1959198,110.974783 C-15.9561626,111.077946 -14.7362272,110.588808 -13.8640725,109.713696 L-3.1080981,99.0949555 L5.68913206,107.769595 C6.60813808,108.664273 7.86050903,109.160525 9.1705431,109.014673 C10.4679634,108.902616 11.6464534,108.244503 12.3816582,107.20931 C12.4104898,107.180851 14.565649,104.395432 17.2325684,104.185548 C18.9624621,103.982778 20.6346927,104.934373 22.5069422,106.782426 C24.4206371,108.664273 25.3630688,110.498095 25.2855839,112.226976 C25.1666537,114.62642 23.1304247,116.803529 22.3790022,117.418953 C21.3969271,118.196238 20.8058801,119.343489 20.7338012,120.576116 C20.67794,121.821195 21.1284332,123.018249 22.0186076,123.893361 L32.2700297,134.006955 L6.73607814,159.212679 Z M-72.38101,81.2193537 L-46.8529384,55.9614243 L-40.6925433,62.0481449 C-43.6258932,67.1756811 -45.3772544,75.0737983 -38.5718107,81.793438 C-31.4744734,88.8286459 -23.4510048,87.1741418 -18.2689936,84.2555825 L-9.51038576,92.9274656 L-17.240159,100.579547 C-19.5843164,98.7770644 -22.9266775,96.8818729 -26.8528257,96.70002 C-29.5933817,96.5449103 -33.6456568,97.2188354 -37.5862195,101.119757 C-42.0745331,105.551973 -42.8403032,110.007367 -42.6835455,112.966932 C-42.4925534,116.776927 -40.7700212,119.954003 -39.0835252,122.205768 L-44.8673416,127.928783 L-72.38101,100.704348 C-77.8116712,95.3254267 -77.8116712,86.578663 -72.38101,81.2193537 Z M-17.0529191,26.4671015 C-14.429648,23.8672866 -10.9271486,22.4391691 -7.21385058,22.4391691 C-3.48433733,22.4391691 -0.00706168576,23.8672866 2.62701965,26.4671015 L30.1335312,53.6583161 L24.3807119,59.3387336 C22.0565225,57.5455736 18.6963572,55.6598175 14.7470369,55.4728445 C11.8553128,55.2894329 7.95644004,55.9963688 4.02874009,59.885407 C-0.450279203,64.3139958 -1.21600052,68.7479267 -1.05925286,71.6985385 C-0.871876353,75.5092261 0.868563165,78.6966704 2.529728,80.9403462 L-3.26813366,86.6706231 L-14.649455,75.3899195 C-16.3016114,73.7641448 -19.0023555,73.7160661 -20.7391916,75.2492446 C-21.7877794,76.1823288 -27.246922,80.5681809 -32.3223031,75.5519628 C-36.9868972,70.9346203 -32.5763424,65.4198075 -31.6700887,64.3763201 C-30.1026121,62.65973 -30.1818868,60.0403275 -31.8358448,58.4074301 L-40.6083086,49.7461289 L-17.0529191,26.4671015 Z M68.3462457,78.9622606 L9.08405027,20.3609724 C0.51686861,11.8796759 -14.4698437,11.8796759 -23.0424305,20.3609724 L-78.3678663,75.0449383 C-87.2107112,83.8005722 -87.2107112,98.0482954 -78.3678663,106.825306 L-19.1020675,165.412343 C-14.7923517,169.666352 -9.08810414,172 -3.00909869,172 C3.055493,172 8.76334399,169.666352 13.0388271,165.412343 L68.3462457,110.742628 C72.639746,106.493964 75,100.852236 75,94.8453189 C75,88.8384018 72.639746,83.1966739 68.3462457,78.9622606 Z" id="Fill-1" fill="#FFFFFF" opacity="0.1" mask="url(#mask-3)"></path>
        </g>
    </g>
</svg>