<?xml version="1.0" encoding="UTF-8"?>
<svg width="19px" height="13px" viewBox="0 0 19 13" version="1.1" xmlns="http://www.w3.org/2000/svg" xmlns:xlink="http://www.w3.org/1999/xlink">
    <!-- Generator: Sketch 50.2 (55047) - http://www.bohemiancoding.com/sketch -->
    <title>umute</title>
    <desc>Created with Sketch.</desc>
    <defs></defs>
    <g id="umute" stroke="none" stroke-width="1" fill="none" fill-rule="evenodd">
        <g id="Group-3" fill="#12264F">
            <polygon id="Fill-1" points="9.09 -0.0002 4.96 3.3098 0 3.3098 0 9.0898 4.96 9.0898 9.09 12.3998 9.09 5.7798"></polygon>
        </g>
        <g id="Group-3" transform="translate(12.000000, 1.000000)" fill="#12264F">
            <path d="M4.79766252,10.459363 C4.7253773,10.459363 4.65245239,10.4354345 4.59296101,10.3863182 C4.45734626,10.2748618 4.43879519,10.0765072 4.55202071,9.94301146 C6.76663515,7.32976882 6.76663515,3.81794853 4.55202071,1.20407619 C4.43879519,1.07058042 4.45734626,0.871596162 4.59296101,0.760769486 C4.72793607,0.648683416 4.92943911,0.665685236 5.04330433,0.800440398 C7.46262028,3.65611639 7.46262028,7.49223065 5.04330433,10.3460176 C4.9799748,10.4209515 4.88849881,10.459363 4.79766252,10.459363" id="Wave-3"></path>
            <path d="M2.55884124,9.0357032 C2.48591632,9.0357032 2.41235172,9.01114501 2.35222065,8.96076925 C2.2172456,8.84868318 2.2006136,8.65032862 2.31447881,8.51746255 C3.88364381,6.69385997 3.88364381,4.14736522 2.31447881,2.32439234 C2.2006136,2.19152627 2.2172456,1.99317171 2.35222065,1.88045594 C2.48719571,1.76899957 2.68805906,1.78474199 2.80320366,1.91697837 C4.57770986,3.97986581 4.57770986,6.86135938 2.80320366,8.92424682 C2.73923444,8.99792138 2.64967753,9.0357032 2.55884124,9.0357032" id="Wave-2"></path>
            <path d="M0.319715453,7.5986981 C0.244871464,7.5986981 0.169387783,7.57288052 0.108617023,7.52061567 C-0.023799265,7.40538112 -0.0372328015,7.20639686 0.0798308734,7.07604957 C1.03361196,6.00808343 1.03361196,4.51633118 0.0798308734,3.44836503 C-0.0372328015,3.31801775 -0.023799265,3.11903349 0.108617023,3.00379894 C0.241033311,2.88919408 0.442536358,2.90241771 0.559600033,3.032765 C1.73279555,4.34505359 1.73279555,6.17936102 0.559600033,7.49164961 C0.496910196,7.56217568 0.408632671,7.5986981 0.319715453,7.5986981" id="Wave-1"></path>
        </g>
    </g>
</svg>