<svg xmlns="http://www.w3.org/2000/svg" viewBox="0 0 232.6 50.41" width="232.6" height="50.41" preserveAspectRatio="xMinYMid"><defs><style>.cls-1{fill:#fff;}</style></defs><title>Asset 1</title><g id="Layer_2" data-name="Layer 2"><g id="Layer_1-2" data-name="Layer 1"><g id="Layer_2-2" data-name="Layer 2"><g id="Layer_1-2-2" data-name="Layer 1-2"><polygon class="cls-1" points="98.8 0 113.2 0 113.2 1.8 108.8 1.8 118.2 40.5 124.9 13.2 121.9 1.8 118 1.8 118 0 134.2 0 134.2 1.8 129.2 1.8 138.4 40.9 148.2 1.8 144.1 1.8 144.1 0 153 0 153 1.8 150.1 1.8 138 50.3 133.6 50.3 125.7 16.5 117.6 50.3 113.4 50.3 101.7 1.8 98.8 1.8 98.8 0"/><path class="cls-1" d="M155.1,20.6c-2.1,0-3.6,1.1-4.4,3.4-1,2-1.5,5.8-1.5,10.7,0,5.2.4,8.7,1.5,11a4.44,4.44,0,0,0,4.4,3.3v1.1a9.61,9.61,0,0,1-8-4.3c-2.3-2.9-3.3-6.7-3.3-11.2a17.42,17.42,0,0,1,3.3-11,9.25,9.25,0,0,1,8-4.3Zm13,29.7V48.7h2.7v-28h-2.7V19.2h7.5v4.7a6.58,6.58,0,0,1,2.5-4,6.37,6.37,0,0,1,4.2-1.3,6.15,6.15,0,0,1,1.9.2,12.2,12.2,0,0,1,1.7.7V30.2h-1.7a7.49,7.49,0,0,1-.4-1.6c-1-5.4-2.3-8.3-3.6-8.3s-2.3,1.1-3.1,2.9a16.85,16.85,0,0,0-1.4,7.4V48.7h4.2v1.6Zm28.6-1.5H195V9h-7.7v1.6h2.9V48.8h-2.9v1.6h9.4Zm0-17.5v3.8l-1.2-2.5ZM155.1,49c2.1,0,3.5-1.1,4.4-3.4s1.5-5.8,1.5-11c0-4.9-.6-8.7-1.5-10.7-.8-2.2-2.3-3.4-4.4-3.4V19.4a9.31,9.31,0,0,1,7.9,4.3,17.85,17.85,0,0,1,3.4,10.9c0,4.5-1,8.3-3.4,11.2a9.31,9.31,0,0,1-7.9,4.3Zm75.8-27.7v8.5h-2.1a15,15,0,0,1-.6-2.9c-1-4-2.9-6.3-5.4-6.3a6.45,6.45,0,0,0-4.4,1.4,4.6,4.6,0,0,0-1.7,3.6c0,1.8,2.1,3.8,6.1,5.6a11.26,11.26,0,0,1,2.7,1.3,13,13,0,0,1,5.4,3.8,7.33,7.33,0,0,1,1.7,4.7,8.55,8.55,0,0,1-3.1,6.7,11.36,11.36,0,0,1-7.9,2.7,22.65,22.65,0,0,1-5.2-.9,14.48,14.48,0,0,1-3.8-2.2v-9h2.1c1,5.1,1.9,8.3,2.7,9.2.8,1.1,2.1,1.6,4.2,1.6a6.67,6.67,0,0,0,4.6-1.8,5.69,5.69,0,0,0,1.9-4.2,4.84,4.84,0,0,0-1.3-3.4c-.8-.9-2.7-2-5.8-3.3-3.6-1.8-6-3.1-7.1-4.2a6,6,0,0,1-1.5-4.2,7,7,0,0,1,2.9-6c2.1-1.6,4.6-2.2,7.9-2.2a10,10,0,0,1,3.8.5,6.71,6.71,0,0,1,3.9,1M196.7,35.1l7.7,15.2h6.7V48.7H209l-9.8-18.6,7.5-9.4h2.5V19.1h-8.1v1.6h4l-8.4,10.5Zm0,13.7h1.2v1.6h-1.2Z"/><path class="cls-1" d="M90.6,14.3C88.3,11.2,83.7,4,82.3,2.9a2.81,2.81,0,0,0-3.9.1l-.1.1a3.19,3.19,0,0,0,.2,4.2c1.5,1.1,8.8,5.4,11.9,7.4Z"/><path class="cls-1" d="M95.2,12.3a3.47,3.47,0,0,1,1-2.5A3.44,3.44,0,0,1,98.3,9a2.72,2.72,0,0,1,2.1.9,3.49,3.49,0,0,1,.8,2.2,4.38,4.38,0,0,1-.8,2.5,2.72,2.72,0,0,1-2.1.9,2.43,2.43,0,0,1-2.1-.9,3.73,3.73,0,0,1-1-2.3"/><path class="cls-1" d="M91,21.3V32H89.6c0-.5-.2-.9-.2-1.8-1.5-6.3-3.1-9.6-5.2-9.6-2.3,0-4,1.4-5,3.8-1.3,2.7-1.7,6.5-1.7,11.4,0,4.5.4,6.9,1.5,9.2a5.09,5.09,0,0,0,4.8,3.3,5.3,5.3,0,0,0,4.8-2.7,15,15,0,0,0,2.3-7.4h1a13.47,13.47,0,0,1-2.5,8.7A8.25,8.25,0,0,1,82.7,50a9.31,9.31,0,0,1-7.9-4.3,16.33,16.33,0,0,1-2.9-10.3c0-4.9,1-8.7,3.5-11.9a11,11,0,0,1,9-4.5,22,22,0,0,1,3.6.4c1,.7,2,1.2,3,1.9"/><path class="cls-1" d="M47,50.3V48.7h2.7v-28H47V19.2h7.5v5.1A7.59,7.59,0,0,1,57.2,20a6.41,6.41,0,0,1,4.6-1.5c2.7,0,4.6.7,5.6,2.2,1.3,1.6,1.7,4.7,1.7,9.6V48.6H72v1.6H61.6V48.6h2.7v-19c0-4-.2-6.7-.8-7.8A2.91,2.91,0,0,0,60.6,20c-1.9,0-3.3,1.1-4.4,3.1a18.19,18.19,0,0,0-1.7,8.3V48.6h2.9v1.6Z"/><polygon class="cls-1" points="34.2 19.2 42.2 19.2 42.2 48.8 45.1 48.8 45.1 50.3 34.2 50.3 34.2 48.8 37.2 48.8 37.2 20.8 34.2 20.8 34.2 19.2"/><path class="cls-1" d="M36.3,12.3a3.29,3.29,0,0,1,.8-2.5A3.72,3.72,0,0,1,39.3,9a2.43,2.43,0,0,1,2.1.9,2.65,2.65,0,0,1,.8,2.2,4.38,4.38,0,0,1-.8,2.5,2.2,2.2,0,0,1-1.9.9,2.81,2.81,0,0,1-2.3-.9,3.17,3.17,0,0,1-.9-2.3"/><polygon class="cls-1" points="15.4 1.8 10.2 1.8 20.5 41.6 31.1 1.8 25.5 1.8 25.5 0 35.9 0 35.9 1.8 32.8 1.8 19.9 50.1 15.7 50.1 2.9 1.8 0 1.8 0 0 15.4 0 15.4 1.8"/><polygon class="cls-1" points="93.8 19.2 101.7 19.2 101.7 48.8 104.4 48.8 104.4 50.3 93.8 50.3 93.8 48.8 96.5 48.8 96.5 20.8 93.8 20.8 93.8 19.2"/></g></g></g></g></svg>
